<svg xmlns="http://www.w3.org/2000/svg" viewBox="0 0 96 96" fill="none" role="img" aria-label="iShopine">
  <rect width="96" height="96" rx="22" fill="url(#app-bg)"/>
  <defs>
    <linearGradient id="app-bg" x1="8" y1="8" x2="88" y2="88" gradientUnits="userSpaceOnUse">
      <stop stop-color="#00A67D"/>
      <stop offset="1" stop-color="#008060"/>
    </linearGradient>
  </defs>
  <g transform="translate(8,8) scale(0.833)">
    <path
      fill="#FFFFFF"
      d="M48 18c-9.4 0-16.8 5.2-18.8 12.6-1.4 5.1.4 10.4 4.6 14.1 3.7 3.2 8.7 4.7 13.8 4.2 3.1-.3 6-.1 8.5 1.1 3.2 1.6 5.2 4.6 5.4 8.1.3 5.2-3.9 9.8-10.1 10.8-5.1.8-10.2-.8-13.5-4.2l-5.9 5.4c5.2 5.6 12.8 8.4 20.6 7.2 12.2-1.9 20.4-11.4 19.8-22.1-.5-8.6-6.1-15.4-14.2-17.6-2.7-.7-5.7-.7-8.5-.4-4 .4-7.5-.6-9.7-2.8-1.7-1.7-2.3-4-1.7-6.2.9-3.5 4.7-6 9.7-6 3.6 0 6.7 1.3 8.4 3.4l6.1-5.2C57.8 20.1 53.3 18 48 18Z"
    />
    <circle cx="48" cy="10" r="6.5" fill="#FFFFFF"/>
    <circle cx="52" cy="62" r="4.2" fill="#1A1A1A"/>
  </g>
</svg>
